<?xml version="1.0" encoding="UTF-8"?>
<svg id="Calque_1" data-name="Calque 1" xmlns="http://www.w3.org/2000/svg" xmlns:xlink="http://www.w3.org/1999/xlink" viewBox="0 0 852.36 564.27">
  <defs>
    <style>
      .cls-1 {
        stroke: #c9e8f4;
        stroke-miterlimit: 10;
        stroke-width: 28px;
      }

      .cls-1, .cls-2 {
        fill: none;
      }

      .cls-3 {
        fill: #39c;
      }

      .cls-4 {
        fill: #c9e8f4;
      }

      .cls-5 {
        clip-path: url(#clippath);
      }
    </style>
    <clipPath id="clippath">
      <path class="cls-2" d="M551.66,208.13C551.66,144.08,435.7,0,435.7,0c0,0-115.96,144.08-115.96,208.13s51.92,115.96,115.96,115.96,115.96-51.92,115.96-115.96Z"/>
    </clipPath>
  </defs>
  <path class="cls-3" d="M5.26,504.86c-1.64.22-2.98,2.64-4.13.25,17.07-7.76,34.46-10.62,52.9-13.43,35.1-5.35,69.8-7.23,105.15-8.78l24.14-1.06,32-.89,44.33-1.27,74.83-1.04,270.45.05,90.78.99,51.39,1.3,40.61.66c14.55.24,28.63.78,43.06-.96,5.83.1,10.61-2.14,16.39-3.67-11.48,11.2-44.87,14.28-60.62,14.29l-197.48.1-26.58-.69-205.61.35-34.2-.21c-6.11-.04-11.92.39-18.16.44l-89.13.7-35.69.85-20.06.74-85.51,4.41c-23.37,1.21-45.81,3.19-68.86,6.88Z"/>
  <path class="cls-3" d="M551.66,208.13C551.66,144.08,435.7,0,435.7,0c0,0-115.96,144.08-115.96,208.13s51.92,115.96,115.96,115.96,115.96-51.92,115.96-115.96Z"/>
  <g>
    <line class="cls-1" x1="446.17" y1="126.28" x2="446.17" y2="166.57"/>
    <rect class="cls-4" x="410.58" y="116.81" width="71.17" height="17.83" rx="8.92" ry="8.92"/>
    <g class="cls-5">
      <path class="cls-1" d="M497.39,313.87v-43.6c0-18.79-15.23-34.02-34.02-34.02h-58.46c-19.88,0-36-16.12-36-36h0c0-19.88,16.12-36,36-36h32.7s76.95,0,76.95,0"/>
    </g>
  </g>
  <g>
    <path class="cls-3" d="M298.49,385.72l-14.87,43.79c-.41,1.22-.33,4.06-.16,5.16s4.25,1.69,5.39,1.12c4.46-2.27,9.46-7.12,14.61-11.21.11,10.29-8.84,16.48-17.13,20.16-5.22,2.32-12.88,2.87-16.04-3.4-1.77-3.51-.79-9.9.24-13.22-5.9,13.09-22.71,23.98-32.74,15.58-2.69-2.25-4.35-7.47-5.39-11.81-3.4,8.88-22.56,19.78-29.63,12.03-1.66-1.82-1.87-5.53-2.04-11.23-2.57,3.91-17.25,20.6-29.76,10.94-5.44-4.21-4.75-11.93-2.74-17.94,4.47-13.36,8.66-26.2,14.01-39.13,2.02-4.88,11.63-5.03,15.38-2.25l-8.92,22.84c-2.23,5.7-9.89,23.93-6.91,27.89.75,1,4.93.8,5.98.06,7.58-5.35,13.52-14.19,17.07-23.02l11.46-28.54c3.8-1.57,9.13-1.46,13.74.52l-15.37,46.48c-.39,1.17.31,4.8,1.34,5.29,5.04,2.4,14.33-7.91,16.6-11.74,4.56-18.71,18.98-41,39.8-41.64,5.97-.18,10.47,2.14,11.09,8.48,2.54-5.25,7.09-8.01,14.99-5.2ZM276.56,391.28c-15.8-6.94-36.26,40.23-26.5,44.8,11.56,5.41,36.84-40.26,26.5-44.8Z"/>
    <path class="cls-3" d="M548.05,399.91l-13.33,37.54c35.49,6.19,58.8-33.32,55.29-64.14-1.59-13.93-12.11-22.67-25.6-23.18-21.61-.82-49.07,11.28-47.92,36.21-1.9,1.39-6.52.88-9.23-1.01-5.92-4.13-5.37-16.32,1.14-23.99,16.9-19.91,53.89-24.28,76.12-14.96,14.78,6.2,22.79,19.13,22.46,35.4-.57,27.96-18.71,53.48-45.67,61.54-11.04,3.3-38.19,5.72-41.66-2.31-.63-1.46.2-4.76.87-6.76l23.87-71.16c2.03-6.05,12.71-7.17,16.44-2.62l-12.77,39.43Z"/>
    <path class="cls-3" d="M51.36,412.76c-11.66,14.24-23.25,39.12-45.33,33.33-2.68-.7-5.39-3.79-5.87-5.96-.61-2.79.57-7.87,2.67-8.69,7.87,17.01,27.14-9.4,33.26-17.78l-18.59-.68c-2.23-2.43.4-10.36,3.94-10.11,7.89.54,14.48,1.28,21.81.34,13.91-18.86,26.64-36.94,42.78-53.38,6.34-6.46,18.29-9.31,24.18-2.72-1.81,11.49-5.69,22.61-8.58,33.65l-13.95,53.3c3.22,1.8,6.64,1.1,10.75.31-1.48,9.92-13.85,15.04-22.48,10.46-7.48-3.97-.78-24.4.64-32.13l-25.23.04ZM80.55,403.55l7.69-28.02c1.92-7,3.95-13.61,4.09-20.8-13.88,16.38-24.18,32.93-34.72,48.73l22.94.1Z"/>
    <path class="cls-3" d="M348.25,360.18l-14.48,42.79c-3.48,10.28,30.93-4.45,33.26-31.68.79-9.21-3.15-17.77-11.85-20.26-18.82-5.39-48.34,8.29-47.1,29.39-4.55.09-9.6-1.42-11.88-4.87-2.13-3.21-1.65-9.22.92-12.6,18.32-24.13,62.67-27.72,79.96-10.63,10.11,9.99,6.44,25.92-.07,37.32-9.48,16.61-27.66,23.83-46.4,23.13l-10.56,30.8c-3.65,2.03-9.77,3.53-13.84,1.82-1.86-1.35-.24-6.83.58-9.24l24.74-73.11c2.06-6.08,11.03-6.44,16.72-2.85Z"/>
    <path class="cls-3" d="M747.88,406.65c-18.81,18.87-37.67,5.28-35.28,21.6.39,2.63,3.49,7.64,6.09,8.26,11.36,2.68,18.45-3.6,26.93-11.2,1.39,2.32,1.03,6.32-.76,8.45-8.04,9.57-19.83,14.01-32.06,12.27-7.8-1.11-12.12-7.11-14.67-14.21-7.34,10.11-19,17.45-30.99,13.44-6.39-2.14-7.52-11.59-5.64-17.43l11.8-36.69-8.7-.17c.5-6.09,4.85-8.24,11.05-7.04l7.55-19.94c1.56-4.12,10.76-3.92,14.93-1.98l-7.2,21.92,13.14-.05c.4,5.32-3.4,7.38-7.51,7.58l-8.61.4-12.07,36.33c-.45,1.36-.01,4.91.5,6.17,2.36,5.81,18.74-3.33,21.8-9.61,1.92-21.71,26.06-50.75,48.27-40.26,8.31,3.92,7.35,16.24,1.43,22.18ZM739.64,395.29c.33-1.56-.12-4.62-.99-5.29-5.78-4.43-15.13,9.42-17.94,14.33l-4.28,7.48c10.13.39,20.76-5.09,23.21-16.52Z"/>
    <path class="cls-3" d="M125.32,475.71l13.17-39.21,3.01-6.7-8.4,9.36c-5.97,6.65-17.49,10.66-25.09,4.11-11.03-9.5-3.03-42.86,22.28-57.64,7.09-4.14,21.53-6.01,24.74,4.35,1.93-5.33,9.23-6.53,13.89-3.03l-28.48,86.82c-3.82,2.92-9.13,3.65-15.13,1.94ZM147.02,390.76c-16.28-5.41-37.7,42.71-25.29,45.94s36.64-42.17,25.29-45.94Z"/>
    <path class="cls-3" d="M459.33,440.7c-9.7,6.52-21.24,7.82-31.17,3.18-14.14-6.6-7.9-40.58,13.14-55.86,11.2-8.14,34.21-8.82,37.08,4.66,3.8,17.84-3.43,37.52-19.05,48.01ZM442.1,439.21c15.39-2.25,21.66-30.61,22.55-42.59.15-1.98-2.72-5.94-4.58-6.19-13.54-1.83-23.61,26.59-25.18,40.03-.39,3.33,3.32,9.32,7.21,8.75Z"/>
    <path class="cls-3" d="M623.1,435.56c15.62,7.99,27.9-13.81,28.91-9.34,2.15,9.45-16.99,23.18-34.04,19.58-4.5-.95-10.5-5.09-11.97-9.44-6.52-19.24,7.1-40.31,23.36-50.73,5.51-3.53,26.07-7.26,28.72,6.92,3.38,18.02-23.85,26.43-37.09,27.49-3.18,3.59-3.28,12.76,2.11,15.52ZM645.52,395.05c.36-1.83-.54-4.82-1.77-5.19-8.55-2.54-18.28,14.61-20.55,21.72,10.67.17,20.17-5.63,22.32-16.53Z"/>
    <path class="cls-3" d="M822.73,435.15c10.75,3.95,14.72-4.83,24.28-10.01-1.41,13.01-15.4,20.61-27.72,21.31-6.63.38-13.06-5.09-11.69-12.1,2.85-14.54,7.81-27.56,12.76-42.34l-8.64-1.54c.26-5.14,5.38-7.7,11.44-6.65l7.78-20.96c2.94-2.6,10.89-2.66,14.85-1.47l-7.91,22.43,14.48.25c-1.07,2.64-3.36,6.83-5.22,6.93l-11.59.65-9.14,26.12c-1.85,5.28-2.93,11.06-3.67,17.37Z"/>
    <path class="cls-3" d="M776.19,437.32c12.69.67,17.12-8.4,22.59-11.05.79-.38,1.19,3.69.73,4.56-5.98,11.15-21.52,18.55-34.33,14.72-8.38-2.51-10.67-8.43-11.12-16.44-.9-15.84,6.64-30.07,19.08-39.59,6.72-5.15,13.51-7.98,22.49-7.02,6.86.74,12.8,6.21,12.3,13.04-.49,6.64-7.47,13.47-15.2,11.05,1.38-5.31,2.58-12.08,1.52-16.79-6.85-1.03-11.64,3.72-14.96,8.56-6.66,9.69-11.28,20.07-10.1,32.15.33,3.35,2.9,6.6,7,6.81Z"/>
    <path class="cls-3" d="M368.2,442.91c2.92-12.27,6.83-23.78,10.79-34.88l8.5-23.83c4.62-.25,9.22.06,13.7.81l-5.61,17.69c4.04-6.32,18.3-25.83,28.46-19.49,4.03,2.52,3.4,8.41,2.12,12.25s-6.52,8.84-10.14,6.64c-.55-1.68-1.47-5.06-2.08-6.33s-4.71.55-6.04,1.74c-12.76,11.41-21.09,28.31-25.15,45.67-2.53,3.07-10.56,3.32-14.55-.27Z"/>
    <path class="cls-3" d="M514.2,415.35c-9.65.52-18.33.58-27.13.44-1.24-2.82.78-9.99,3.42-10.18,8.85-.66,17.52-.54,26-.22,1.15,1.73.08,9.83-2.29,9.96Z"/>
  </g>
  <g>
    <path class="cls-3" d="M300.48,553.87c0,6.24-4.89,9.88-14.25,9.88h-18.1v-36.4h17.06c8.74,0,13.42,3.69,13.42,9.46,0,3.74-1.87,6.5-4.68,8.01,3.9,1.25,6.55,4.32,6.55,9.05ZM274.9,532.65v10.04h9.57c4.68,0,7.33-1.66,7.33-4.99s-2.65-5.04-7.33-5.04h-9.57ZM293.67,553.19c0-3.64-2.76-5.25-7.85-5.25h-10.92v10.5h10.92c5.1,0,7.85-1.61,7.85-5.25Z"/>
    <path class="cls-3" d="M345.62,558.08v5.67h-27.3v-36.4h26.57v5.67h-19.81v9.46h17.58v5.56h-17.58v10.04h20.54Z"/>
    <path class="cls-3" d="M363.77,527.35h6.76v30.68h19.03v5.72h-25.79v-36.4Z"/>
    <path class="cls-3" d="M455.6,527.35h6.76v36.4h-6.76v-36.4Z"/>
    <path class="cls-3" d="M482.48,547.89v-20.54h6.76v20.28c0,7.49,3.38,10.71,9.26,10.71s9.2-3.22,9.2-10.71v-20.28h6.66v20.54c0,10.61-5.98,16.38-15.91,16.38s-15.96-5.77-15.96-16.38Z"/>
    <path class="cls-3" d="M567.87,563.75l-.05-24.13-11.96,19.97h-3.02l-11.96-19.66v23.82h-6.45v-36.4h5.56l14.46,24.13,14.2-24.13h5.56l.05,36.4h-6.4Z"/>
  </g>
  <path class="cls-3" d="M419.66,543.52v6.4h10.04v6.55c-2.34,1.35-4.89,1.87-7.49,1.87-7.7,0-13.16-5.41-13.16-12.79s5.46-12.79,13.21-12.79c3.9,0,7.18,1.3,10.04,4.16l4.26-4.16c-3.43-3.9-8.53-5.93-14.61-5.93-11.39,0-19.71,7.85-19.71,18.72s8.32,18.72,19.6,18.72c5.15,0,10.45-1.56,14.25-4.63v-16.12h-16.44Z"/>
</svg>